<?xml version="1.0" encoding="UTF-8"?>
<svg id="Layer_1" data-name="Layer 1" xmlns="http://www.w3.org/2000/svg" viewBox="0 0 1249.13 1005.17">
  <defs>
    <style>
      .cls-1 {
        fill: #f2f3f3;
      }

      .cls-1, .cls-2, .cls-3, .cls-4, .cls-5, .cls-6 {
        stroke-width: 0px;
      }

      .cls-2 {
        fill: #f9f9f9;
      }

      .cls-3 {
        fill: #dedfdf;
      }

      .cls-4 {
        fill: #c5c8c8;
      }

      .cls-5 {
        fill: #d5d6d7;
      }

      .cls-6 {
        fill: #ebecec;
      }
    </style>
  </defs>
  <g>
    <polygon class="cls-1" points="993.85 689.24 684.76 357.51 702.97 621.83 993.85 689.24"/>
    <path class="cls-1" d="M255.28,818.58l23.89-.85c231.28-39.88,464.23-78.76,695.52-118.63,6.95-1.2,12.22-3.39,19.17-4.59-224.15,23.94-448.3,47.88-672.45,71.83l-66.12,52.24Z"/>
    <polygon class="cls-6" points="762.12 556.31 684.76 357.51 702.54 622.3 762.12 556.31"/>
    <polygon class="cls-3" points="702.54 622.3 993.85 689.24 762.12 556.31 702.54 622.3"/>
    <polygon class="cls-5" points="741.11 795.7 993.85 694.52 261.44 818.58 741.11 795.7"/>
    <polygon class="cls-4" points="872.11 789.55 993.85 694.52 715.55 796.92 872.11 789.55"/>
  </g>
  <g>
    <polygon class="cls-1" points="638.94 186.59 370.56 704.2 670.13 671.5 638.94 186.59"/>
    <polygon class="cls-1" points="665.73 592.71 638.94 186.59 665.45 592.82 665.73 592.71"/>
    <polygon class="cls-3" points="670.61 671.82 665.73 592.71 665.45 592.82 670.61 671.82"/>
    <polygon class="cls-3" points="592.68 620.31 370.56 704.2 670.61 671.82 592.68 620.31"/>
    <polygon class="cls-2" points="638.94 186.59 592.68 620.31 592.68 620.31 670.61 671.82 638.94 186.59"/>
  </g>
</svg>